<?xml version="1.0" encoding="utf-8"?>
<svg version="1.1" id="Layer_1" xmlns="http://www.w3.org/2000/svg" xmlns:xlink="http://www.w3.org/1999/xlink" x="0px" y="0px"
	 width="570px" height="600px">
<style type="text/css">
	.st0{fill:#FB4934;}
</style>
<g id="XMLID_118_">
	<path id="XMLID_2_" class="st0" d="M500.1,341.7h-67.6c-5.8,0-10.1-1.3-12.9-3.9c-2.9-2.6-4.3-6-4.3-10.2c0-4.4,1.4-7.9,4.3-10.5
		c2.9-2.6,7.2-3.9,12.9-3.9h69.1c7.9,0,14.4-0.9,19.7-2.6c5.3-1.8,9.4-4.9,12.3-9.4c2.9-4.5,4.4-10.7,4.4-18.8c0-11.1-3-19-8.9-23.6
		c-5.9-4.6-14.9-6.9-26.9-6.9h-69.7c-5.8,0-10.1-1.3-13-3.8c-2.8-2.6-4.3-6-4.3-10.3c0-4.3,1.4-7.8,4.3-10.4c2.8-2.7,7.2-4,13-4
		h67.6c11,0,20.2,1.1,27.5,3.2c7.4,2.1,13.8,6.2,19.4,12.1c4.7,5.1,8.2,11.1,10.4,17.8c2.2,6.8,3.3,14.7,3.3,23.8
		c0,10.8-1.2,20.1-3.5,27.9c-2.3,7.8-5.9,14.2-10.8,19.1s-11.2,8.5-18.8,10.8C519.9,340.5,510.7,341.7,500.1,341.7z"/>
</g>
<g id="XMLID_142_">
	<circle id="XMLID_4_" class="st0" cx="371" cy="307.3" r="15.7"/>
</g>
<g id="XMLID_144_">
	<circle id="XMLID_1_" class="st0" cx="371" cy="258.9" r="15.7"/>
</g>
</svg>
